<?xml version="1.0" standalone="no"?>
<!DOCTYPE svg PUBLIC "-//W3C//DTD SVG 20010904//EN"
 "http://www.w3.org/TR/2001/REC-SVG-20010904/DTD/svg10.dtd">
<svg version="1.0" xmlns="http://www.w3.org/2000/svg"
 width="512.000000pt" height="512.000000pt" viewBox="0 0 512.000000 512.000000"
 preserveAspectRatio="xMidYMid meet">

<g transform="translate(0.000000,512.000000) scale(0.100000,-0.100000)"
fill="#000000" stroke="none">
<path d="M2315 5099 c-883 -91 -1648 -628 -2045 -1433 -244 -495 -315 -1014
-215 -1562 127 -687 512 -1272 1095 -1663 595 -398 1338 -526 2033 -350 358
90 732 276 1012 504 119 97 302 286 392 406 261 348 414 728 479 1194 21 146
24 493 5 640 -121 976 -693 1751 -1541 2088 -201 80 -409 133 -644 162 -150
20 -451 27 -571 14z m-315 -425 c0 -3 -20 -29 -45 -57 -25 -29 -60 -81 -78
-117 -42 -84 -43 -166 -5 -255 14 -33 31 -74 38 -92 10 -26 22 -35 62 -49 61
-20 114 -71 128 -125 7 -25 9 -71 4 -118 -8 -93 1 -115 53 -131 98 -31 141
-88 130 -171 -8 -63 0 -78 62 -105 61 -27 114 -73 138 -119 25 -47 63 -177 63
-215 0 -47 -50 -149 -88 -182 -17 -14 -65 -44 -107 -67 -42 -23 -93 -60 -114
-82 -30 -30 -46 -39 -73 -39 -50 0 -76 -24 -116 -107 -40 -84 -53 -95 -172
-144 -94 -40 -183 -44 -246 -12 -22 12 -46 29 -53 37 -24 29 -41 17 -81 -63
-46 -92 -59 -99 -163 -81 -49 9 -77 21 -117 51 -53 40 -53 40 -134 37 l-81 -3
-5 -48 c-5 -38 -14 -55 -48 -90 -36 -36 -42 -49 -42 -84 0 -34 -4 -42 -22 -47
-48 -12 -69 -6 -109 35 -22 22 -45 39 -52 37 -14 -5 -86 -136 -87 -159 0 -22
48 -65 95 -85 55 -23 191 -23 270 0 33 10 86 31 117 48 l57 30 29 -21 c49 -34
128 -127 152 -177 13 -26 36 -99 52 -163 34 -141 61 -199 128 -273 73 -82 112
-98 242 -98 133 0 138 -4 138 -100 0 -38 4 -71 9 -74 4 -3 62 12 127 34 65 22
125 40 133 40 16 0 171 -148 171 -162 0 -5 -13 -8 -28 -8 -36 0 -49 -15 -102
-119 -50 -95 -97 -151 -130 -151 -12 0 -56 17 -98 37 l-75 37 -161 1 c-204 1
-225 9 -273 105 -19 37 -38 64 -45 62 -7 -2 -27 -19 -44 -38 -26 -28 -39 -34
-72 -34 -52 0 -62 -17 -60 -101 2 -76 14 -91 94 -113 33 -10 76 -23 97 -31 63
-25 99 -20 137 20 19 19 42 35 52 35 9 0 54 -13 100 -30 103 -38 210 -60 288
-60 l60 0 -46 -92 c-76 -153 -109 -178 -236 -178 l-84 0 -45 43 c-47 44 -193
127 -224 127 -9 0 -40 -22 -69 -50 -29 -27 -59 -50 -66 -50 -7 0 -51 25 -98
56 -423 282 -757 714 -923 1193 -44 128 -93 318 -104 403 -7 53 -6 56 24 81
18 14 48 29 69 32 123 20 150 31 242 105 83 67 117 80 201 80 67 0 71 1 114
41 49 46 97 61 162 52 53 -7 73 8 73 53 0 25 -9 42 -39 72 -49 48 -70 91 -110
220 -32 102 -32 104 -16 152 9 27 38 79 64 117 118 167 183 213 302 213 75 0
80 5 72 67 -9 68 15 142 99 310 l82 162 4 93 c3 85 8 103 52 203 26 61 69 172
95 247 50 146 67 170 132 193 37 14 173 21 173 9z m2548 -794 c364 -543 489
-1253 331 -1885 l-20 -80 -96 -44 -95 -45 -87 44 c-47 24 -107 63 -132 87 -25
24 -52 43 -58 43 -29 0 -190 -93 -225 -130 l-38 -40 -143 0 -143 0 -88 42
c-81 39 -96 43 -184 46 -105 5 -122 12 -159 73 -18 29 -21 50 -21 156 l0 122
-46 52 -46 52 4 166 c4 136 9 179 28 236 56 175 170 253 355 243 69 -4 94 -10
161 -43 123 -59 246 -59 369 -1 88 42 88 42 91 147 3 85 6 101 39 164 19 38
35 81 35 94 0 16 -26 50 -80 105 -44 45 -80 88 -80 95 0 7 39 90 88 184 79
156 87 178 88 232 1 33 2 65 3 70 3 17 67 -64 149 -185z m-50 -2284 c86 -44
86 -45 -7 -140 -44 -46 -81 -86 -81 -89 0 -15 64 -77 79 -77 9 0 54 38 99 84
66 68 82 90 82 114 0 43 9 62 31 62 10 0 19 -3 19 -8 0 -15 -123 -230 -186
-322 -35 -52 -102 -141 -150 -198 l-87 -104 -38 38 c-38 37 -40 38 -137 44
-54 4 -108 13 -120 19 -42 23 -62 69 -62 148 0 102 -5 110 -43 69 -36 -38
-113 -60 -189 -54 -40 3 -45 6 -76 58 -61 103 -61 148 4 264 l26 46 87 0 c93
0 102 -3 173 -67 21 -18 74 -51 119 -73 44 -23 101 -59 125 -82 26 -24 48 -37
53 -32 25 27 81 151 81 180 0 43 14 80 47 118 43 51 53 52 151 2z m-283 -757
c-22 -22 -73 -68 -114 -102 -71 -58 -74 -60 -67 -32 10 43 69 99 145 139 36
20 68 36 71 36 2 0 -14 -18 -35 -41z"/>
</g>
</svg>
